<svg width="17" height="17" viewBox="0 0 17 17" fill="none" xmlns="http://www.w3.org/2000/svg">
<path d="M8.50001 12.7917C8.91422 12.7917 9.25001 12.4559 9.25001 12.0417C9.25001 11.6275 8.91422 11.2917 8.50001 11.2917V12.7917ZM2.83334 11.2917C2.41913 11.2917 2.08334 11.6275 2.08334 12.0417C2.08334 12.4559 2.41913 12.7917 2.83334 12.7917L2.83334 11.2917ZM8.50001 4.20834C8.0858 4.20834 7.75001 4.54412 7.75001 4.95834C7.75001 5.37255 8.0858 5.70834 8.50001 5.70834V4.20834ZM14.1667 5.70834C14.5809 5.70834 14.9167 5.37255 14.9167 4.95834C14.9167 4.54413 14.5809 4.20834 14.1667 4.20834V5.70834ZM8.50001 11.2917L2.83334 11.2917L2.83334 12.7917L8.50001 12.7917V11.2917ZM8.50001 5.70834L14.1667 5.70834V4.20834L8.50001 4.20834V5.70834ZM2.08334 4.95834C2.08334 6.15496 3.05339 7.12501 4.25001 7.12501V5.62501C3.88182 5.62501 3.58334 5.32653 3.58334 4.95834H2.08334ZM4.25001 7.12501C5.44663 7.12501 6.41668 6.15496 6.41668 4.95834H4.91668C4.91668 5.32653 4.6182 5.62501 4.25001 5.62501V7.12501ZM6.41668 4.95834C6.41668 3.76172 5.44663 2.79167 4.25001 2.79167V4.29167C4.6182 4.29167 4.91668 4.59015 4.91668 4.95834H6.41668ZM4.25001 2.79167C3.05339 2.79167 2.08334 3.76172 2.08334 4.95834H3.58334C3.58334 4.59015 3.88182 4.29167 4.25001 4.29167V2.79167ZM14.9167 12.0417C14.9167 10.8451 13.9466 9.875 12.75 9.875V11.375C13.1182 11.375 13.4167 11.6735 13.4167 12.0417H14.9167ZM12.75 9.875C11.5534 9.875 10.5833 10.8451 10.5833 12.0417H12.0833C12.0833 11.6735 12.3818 11.375 12.75 11.375V9.875ZM10.5833 12.0417C10.5833 13.2383 11.5534 14.2083 12.75 14.2083V12.7083C12.3818 12.7083 12.0833 12.4099 12.0833 12.0417H10.5833ZM12.75 14.2083C13.9466 14.2083 14.9167 13.2383 14.9167 12.0417H13.4167C13.4167 12.4099 13.1182 12.7083 12.75 12.7083V14.2083Z" fill="#2D264B"/>
</svg>
