<svg width="34" height="34" viewBox="0 0 34 34" fill="none" xmlns="http://www.w3.org/2000/svg">
<rect width="34" height="34" rx="6" fill="white"/>
<path d="M14.6528 24.5L14.9028 24.8333C16.0278 26.3333 18.2778 26.3333 19.4028 24.8333L19.6528 24.5M10.6385 19.958L10.7246 20.1355C11.2778 21.2759 12.4338 22 13.7012 22H20.5519C21.638 22 22.6488 21.4451 23.2319 20.5289C24.0551 19.2355 23.8371 17.5387 22.7137 16.4954L22.6771 16.4615C21.9144 15.7531 21.5389 14.7212 21.668 13.6883L21.7218 13.2575C22.0265 10.8198 20.1258 8.66666 17.6691 8.66666H16.25C13.7963 8.66666 11.8978 10.8172 12.2022 13.2519L12.2683 13.781C12.3901 14.7552 12.0342 15.7284 11.3126 16.3943C10.327 17.3038 10.0532 18.7513 10.6385 19.958Z" stroke="#2D264B" stroke-width="1.5" stroke-linecap="round"/>
</svg>
